<svg width="24" height="24" version="1.1" xmlns="http://www.w3.org/2000/svg" xmlns:xlink="http://www.w3.org/1999/xlink"><rect id="backgroundrect" width="100%" height="100%" x="0" y="0" fill="none" stroke="none"/><!--Generated by IJSVG (https://github.com/iconjar/IJSVG)--><g class="currentLayer" style=""><title>Layer 1</title><path d="M14,14h-7v2h7m5,3h-14v-11h14m0,-5h-1v-2h-2v2h-8v-2h-2v2h-1c-1.11,0 -1.99,0.9 -1.99,2l-0.01,14c0,1.1 0.89,2 2,2h14c1.1,0 2,-0.9 2,-2v-14c0,-1.1 -0.9,-2 -2,-2Zm-2,7h-10v2h10v-2Z" fill="#97a6b8" id="svg_1" class="selected" fill-opacity="1"/></g></svg>